<svg viewBox="0 0 20 20" fill="none" xmlns="http://www.w3.org/2000/svg" class="Icon_icon--O4b Icon_s_m--vnm Input_passIcon--sQK __web-inspector-hide-shortcut__"><g clip-path="url(#clip0)"><path d="M17.3318 17.6C17.2443 17.6002 17.1576 17.5838 17.0767 17.5519C16.9958 17.52 16.9224 17.4732 16.8606 17.4142L2.19529 3.47039C2.07556 3.35056 2.00979 3.191 2.01202 3.02572C2.01424 2.86045 2.08428 2.70254 2.20721 2.58566C2.33013 2.46879 2.49621 2.40219 2.67004 2.40008C2.84386 2.39796 3.01168 2.46049 3.13771 2.57434L17.8031 16.5182C17.8962 16.6068 17.9597 16.7197 17.9853 16.8426C18.011 16.9656 17.9978 17.0929 17.9474 17.2087C17.897 17.3245 17.8116 17.4235 17.702 17.4931C17.5925 17.5628 17.4636 17.6 17.3318 17.6Z" fill="rgb(97, 165, 104)"></path><path d="M9.66569 12.3652L7.50797 10.3136C7.4956 10.302 7.47971 10.2943 7.46252 10.2917C7.44532 10.289 7.4277 10.2916 7.41212 10.299C7.39653 10.3064 7.38377 10.3182 7.37563 10.3328C7.36749 10.3475 7.36438 10.3642 7.36673 10.3806C7.45384 10.9128 7.71669 11.405 8.11729 11.7858C8.51788 12.1667 9.03548 12.4167 9.59528 12.4995C9.61253 12.5017 9.63009 12.4987 9.64548 12.491C9.66087 12.4833 9.67333 12.4711 9.6811 12.4563C9.68886 12.4415 9.69156 12.4247 9.68879 12.4084C9.68603 12.3921 9.67795 12.3769 9.66569 12.3652Z" fill="rgb(97, 165, 104)"></path><path d="M10.3325 7.62337L12.4935 9.67732C12.5059 9.68914 12.5218 9.69697 12.5391 9.69969C12.5564 9.70241 12.5741 9.69988 12.5898 9.69247C12.6055 9.68506 12.6183 9.67314 12.6264 9.6584C12.6346 9.64366 12.6377 9.62686 12.6352 9.61037C12.5483 9.0774 12.2853 8.58454 11.8842 8.20317C11.483 7.8218 10.9647 7.5717 10.4041 7.48909C10.3868 7.48654 10.369 7.48927 10.3534 7.4969C10.3378 7.50452 10.3251 7.51665 10.3171 7.53154C10.3092 7.54643 10.3064 7.56333 10.3091 7.57982C10.3119 7.59632 10.3201 7.61156 10.3325 7.62337Z" fill="rgb(97, 165, 104)"></path><path d="M19.7898 10.6819C19.9277 10.4761 20.0007 10.2369 19.9999 9.99287C19.9992 9.7488 19.9248 9.51006 19.7856 9.30497C18.6832 7.684 17.2529 6.30704 15.6498 5.32266C13.8737 4.2325 11.9155 3.65613 9.98568 3.65613C8.96832 3.65746 7.95787 3.81517 6.99345 4.12317C6.96646 4.1317 6.94221 4.14667 6.92302 4.16663C6.90383 4.1866 6.89034 4.2109 6.88382 4.23723C6.87731 4.26356 6.87799 4.29103 6.8858 4.31704C6.89362 4.34305 6.9083 4.36672 6.92846 4.3858L8.89661 6.25713C8.91706 6.27661 8.94249 6.29068 8.97039 6.29798C8.9983 6.30527 9.02772 6.30553 9.05576 6.29873C9.72289 6.14415 10.4206 6.15547 11.0818 6.33162C11.743 6.50776 12.3454 6.84278 12.8309 7.30443C13.3165 7.76608 13.6688 8.33881 13.8541 8.96747C14.0393 9.59613 14.0512 10.2596 13.8887 10.8939C13.8816 10.9205 13.8819 10.9484 13.8896 10.9748C13.8972 11.0013 13.912 11.0254 13.9324 11.0448L16.7634 13.7385C16.7929 13.7665 16.8323 13.7831 16.8739 13.7848C16.9156 13.7866 16.9564 13.7734 16.9884 13.748C18.0781 12.8648 19.0224 11.8313 19.7898 10.6819Z" fill="rgb(97, 165, 104)"></path><path d="M9.99909 13.7971C9.39363 13.7971 8.79605 13.6665 8.25143 13.415C7.7068 13.1635 7.22934 12.7977 6.85505 12.3452C6.48075 11.8927 6.21939 11.3653 6.09067 10.8027C5.96194 10.2402 5.96922 9.65726 6.11194 9.0978C6.11902 9.0712 6.11871 9.0433 6.11104 9.01684C6.10338 8.99039 6.08861 8.96628 6.0682 8.94687L3.28345 6.29794C3.25392 6.26983 3.21437 6.2533 3.17262 6.25161C3.13087 6.24992 3.08999 6.2632 3.05805 6.28883C2.0419 7.11318 1.0999 8.11619 0.238726 9.28834C0.0879834 9.49405 0.00496344 9.73773 0.000215661 9.98841C-0.00453212 10.2391 0.0692067 10.4855 0.212062 10.6962C1.31238 12.3334 2.72808 13.7123 4.30669 14.6833C6.08528 15.7778 7.99594 16.3324 9.98576 16.3324C11.0134 16.3297 12.0344 16.1754 13.0122 15.8748C13.0394 15.8666 13.0639 15.8518 13.0834 15.8319C13.1029 15.812 13.1167 15.7876 13.1234 15.7612C13.1301 15.7348 13.1296 15.7072 13.1219 15.681C13.1141 15.6548 13.0995 15.631 13.0792 15.6118L11.1015 13.7318C11.0811 13.7123 11.0557 13.6983 11.0279 13.691C11.0001 13.6837 10.9707 13.6834 10.9428 13.6902C10.6338 13.7613 10.317 13.7972 9.99909 13.7971Z" fill="rgb(97, 165, 104)"></path></g><defs><clipPath id="clip0"><rect width="20" height="20" fill="white"></rect></clipPath></defs></svg>