<svg viewBox="0 0 16 16" fill="none" xmlns="http://www.w3.org/2000/svg" class="Icon_icon--O4b Icon_s_m--vnm Input_passIcon--sQK">
  <path d="M8.00051 10.1761C9.1787 10.1761 10.1338 9.20187 10.1338 8.0001C10.1338 6.79832 9.1787 5.8241 8.00051 5.8241C6.82231 5.8241 5.86719 6.79832 5.86719 8.0001C5.86719 9.20187 6.82231 10.1761 8.00051 10.1761Z" fill="rgb(97, 165, 104)"></path>
  <path d="M15.8286 7.40846C14.9466 6.01718 13.8022 4.83534 12.5196 3.99044C11.1006 3.05476 9.53393 2.56006 7.98928 2.56006C6.57195 2.56006 5.1783 2.97316 3.84697 3.7878C2.48931 4.61842 1.25932 5.83188 0.190997 7.39418C0.0703926 7.57074 0.00397108 7.77989 0.000172543 7.99505C-0.003626 8.21021 0.0553699 8.42166 0.169664 8.60254C1.04999 10.0078 2.18298 11.1913 3.44564 12.0246C4.8673 12.9641 6.39729 13.4401 7.98928 13.4401C9.54626 13.4401 11.1163 12.9494 12.5292 12.0216C13.8112 11.1794 14.9532 9.99314 15.8319 8.5903C15.9422 8.41362 16.0006 8.20836 16 7.99888C15.9994 7.7894 15.9399 7.58448 15.8286 7.40846ZM8.00061 11.2641C7.36771 11.2641 6.74903 11.0726 6.2228 10.714C5.69656 10.3553 5.28641 9.84555 5.04422 9.24914C4.80202 8.65272 4.73865 7.99644 4.86212 7.36328C4.98559 6.73013 5.29036 6.14854 5.73788 5.69206C6.18541 5.23558 6.75559 4.92472 7.37632 4.79878C7.99706 4.67283 8.64047 4.73747 9.22519 4.98452C9.80991 5.23156 10.3097 5.64991 10.6613 6.18668C11.0129 6.72344 11.2006 7.3545 11.2006 8.00006C11.1996 8.86542 10.8622 9.69506 10.2623 10.307C9.66236 10.9189 8.849 11.2631 8.00061 11.2641Z" fill="rgb(97, 165, 104)"></path>
</svg>


