<svg aria-hidden="true" style="position: absolute; width: 0; height: 0; overflow: hidden;" version="1.1" xmlns="http://www.w3.org/2000/svg" xmlns:xlink="http://www.w3.org/1999/xlink">
<defs>
<symbol id="icon-ideas" viewBox="0 0 32 32">
<path fill="#61a568" style="fill: var(--color1, #61a568)" d="M13.333 0c7.36 0 13.333 5.433 13.333 12.139 0 6.699-5.973 12.139-13.333 12.139-0.711 0-1.401-0.057-2.084-0.149-2.866 3.207-6.172 3.783-9.472 3.868v-0.782c1.778-0.981 3.221-2.766 3.221-4.807 0-0.284-0.021-0.562-0.057-0.839-3.015-2.226-4.942-5.625-4.942-9.429 0-6.706 5.966-12.139 13.333-12.139v0zM27.662 27.207c0 1.749 1.010 3.278 2.56 4.117v0.676c-2.866-0.078-5.497-0.569-7.979-3.321-0.59 0.085-1.188 0.128-1.799 0.128-2.652 0-5.099-0.804-7.047-2.155 4.018-0.021 7.815-1.465 10.688-4.089 1.451-1.316 2.596-2.866 3.399-4.601 0.853-1.842 1.287-3.804 1.287-5.824 0-0.327-0.007-0.654-0.036-0.974 2.020 1.87 3.264 4.423 3.264 7.239 0 3.264-1.671 6.18-4.288 8.085-0.028 0.235-0.050 0.469-0.050 0.718z"></path>
</symbol>
<symbol id="icon-earth" viewBox="0 0 32 32">
<path fill="#61a568" style="fill: var(--color1, #61a568)" d="M16 0c-8.839 0-16 7.161-16 16 0 8.832 7.161 16 16 16 8.832 0 16-7.168 16-16 0-8.839-7.168-16-16-16zM16 29.995c-1.97 0-3.84-0.405-5.54-1.138l7.282-8.199c0.164-0.178 0.256-0.42 0.256-0.661v-3.001c0-0.548-0.448-0.996-1.003-0.996-3.527 0-7.253-3.676-7.289-3.712-0.192-0.185-0.441-0.292-0.711-0.292h-3.996c-0.555 0-1.003 0.448-1.003 1.003v5.995c0 0.384 0.213 0.725 0.555 0.896l3.449 1.728v5.867c-3.627-2.532-6.002-6.734-6.002-11.484 0-2.148 0.484-4.181 1.344-6.002h3.655c0.263 0 0.519-0.107 0.704-0.292l4.004-4.004c0.185-0.185 0.292-0.441 0.292-0.704v-2.425c1.266-0.377 2.61-0.576 4.004-0.576 2.197 0 4.281 0.505 6.13 1.408-0.128 0.114-0.256 0.228-0.377 0.348-1.131 1.131-1.756 2.638-1.756 4.245 0 1.6 0.626 3.108 1.756 4.238 1.145 1.138 2.667 1.756 4.238 1.756 0.1 0 0.199 0 0.299-0.007 0.434 1.621 1.216 5.838-0.263 11.641-0.014 0.050-0.021 0.107-0.021 0.164-2.546 2.596-6.087 4.203-10.005 4.203v0z"></path>
</symbol>
<symbol id="icon-steam" viewBox="0 0 32 32">
<path fill="#61a568" style="fill: var(--color1, #61a568)" d="M9.493 26.119c0.846 0 1.685-0.405 2.19-1.166 0.804-1.209 0.476-2.837-0.732-3.641l-2.062-1.38c0.356-0.092 0.725-0.149 1.109-0.149 2.325 0 4.21 1.884 4.21 4.21s-1.884 4.21-4.21 4.21c-2.261 0-4.11-1.785-4.203-4.025l2.247 1.5c0.448 0.299 0.953 0.441 1.451 0.441v0zM26.667 0c2.93 0 5.333 2.396 5.333 5.333v21.326c0 2.937-2.404 5.34-5.333 5.34h-21.333c-2.937 0-5.333-2.404-5.333-5.34v-6.343l3.79 2.532c-0.363 1.97 0.213 4.089 1.742 5.611 2.468 2.468 6.464 2.468 8.932 0 1.515-1.515 2.098-3.605 1.749-5.568l7.787-6.969c1.444-0.206 2.837-0.868 3.947-1.977 2.731-2.731 2.731-7.168 0-9.899s-7.168-2.731-9.899 0c-1.116 1.109-1.771 2.503-1.984 3.954l-6.393 9.692c-0.996 0.050-1.984 0.334-2.866 0.853l-6.805-4.537v-8.676c0-2.937 2.396-5.333 5.333-5.333h21.333zM27.996 8.996c0-2.759-2.24-4.999-4.999-4.999s-4.999 2.24-4.999 4.999c0 2.759 2.24 4.999 4.999 4.999s4.999-2.24 4.999-4.999zM19.996 8.996c0-1.657 1.344-3.001 3.001-3.001s3.001 1.344 3.001 3.001c0 1.657-1.344 3.001-3.001 3.001s-3.001-1.344-3.001-3.001z"></path>
</symbol>
<symbol id="icon-cup" viewBox="0 0 32 32">
<path fill="#61a568" style="fill: var(--color1, #61a568)" d="M26.287 4.566v-4.566h-20.226v4.566h-6.061v4.573c0 3.789 2.711 6.859 6.061 6.859 0.633 0 1.251-0.108 1.826-0.316 1.452 2.358 3.681 4.062 6.263 4.659v7.082h-2.020c-2.236 0-4.041 2.049-4.041 4.573h16.178c0-2.524-1.812-4.573-4.048-4.573h-2.020v-7.082c2.581-0.597 4.81-2.301 6.263-4.659 0.575 0.209 1.186 0.316 1.826 0.316 3.351 0 6.068-3.070 6.068-6.859v-4.573h-6.068zM6.061 13.28c-2.020 0-3.667-1.855-3.667-4.141v-2.286h3.667v2.286c0 1.438 0.237 2.811 0.662 4.077-0.216 0.043-0.431 0.065-0.662 0.065zM29.954 9.139c0 2.286-1.647 4.142-3.667 4.142-0.23 0-0.446-0.022-0.662-0.065 0.424-1.265 0.662-2.639 0.662-4.077v-2.286h3.667v2.286z"></path>
</symbol>
<symbol id="icon-headphones" viewBox="0 0 32 32">
<path fill="#61a568" style="fill: var(--color1, #61a568)" d="M32.356 16.034c0-8.858-7.248-16.034-16.178-16.034-8.937 0-16.178 7.176-16.178 16.034 0 1.92 0.338 3.768 0.963 5.472-0.611 1.043-0.963 2.25-0.963 3.545 0 3.538 2.632 6.457 6.061 6.946v-13.884c-1.007 0.137-1.949 0.496-2.768 1.014-0.173-0.841-0.266-1.704-0.266-2.596 0-7.19 5.889-13.028 13.151-13.028 7.255 0 13.144 5.838 13.144 13.028 0 0.892-0.093 1.754-0.266 2.596-0.82-0.518-1.762-0.877-2.768-1.021v13.891c3.43-0.489 6.068-3.408 6.068-6.946 0-1.294-0.36-2.502-0.971-3.545 0.626-1.704 0.971-3.552 0.971-5.472v0z"></path>
</symbol>
<symbol id="icon-buys" viewBox="0 0 32 32">
<path fill="#61a568" style="fill: var(--color1, #61a568)" d="M32 20.359v-17.451h-24c0-1.607-0.896-2.908-2.005-2.908h-5.995v2.908h3.996l1.5 18.731c-0.91 1.060-1.5 2.702-1.5 4.537 0 3.214 1.792 5.824 4.004 5.824h24v-2.916h-24c-1.109 0-2.005-1.301-2.005-2.908 0-0.007 0-0.021 0-0.028l26.005-5.788z"></path>
</symbol>
<symbol id="icon-gaming" viewBox="0 0 120 41"><path d="M45.51 13.41C45.33 13.22 45.08 13.1 44.82 13.07C44.56 13.05 44.3 13.12 44.09 13.27C43.87 13.42 43.71 13.64 43.63 13.9C43.56 14.16 43.57 14.44 43.67 14.69C43.77 14.93 43.95 15.14 44.18 15.27C44.41 15.4 44.68 15.44 44.94 15.38C45.19 15.33 45.42 15.19 45.59 14.98C45.76 14.77 45.85 14.51 45.85 14.24C45.85 14.08 45.82 13.93 45.76 13.79C45.7 13.65 45.62 13.52 45.51 13.41Z" fill="#61A568" fill-opacity="1.000000" fill-rule="nonzero"/>
	<path d="M50.35 10.07C50.51 9.9 50.61 9.69 50.66 9.47C50.7 9.24 50.68 9 50.59 8.79C50.51 8.58 50.36 8.39 50.18 8.27C49.99 8.14 49.77 8.07 49.55 8.07C49.32 8.06 49.1 8.13 48.91 8.25C48.72 8.38 48.57 8.56 48.48 8.78C48.39 8.99 48.37 9.23 48.41 9.46C48.45 9.69 48.56 9.9 48.72 10.07C48.83 10.18 48.95 10.27 49.09 10.33C49.23 10.39 49.38 10.42 49.53 10.42C49.69 10.42 49.84 10.39 49.98 10.33C50.12 10.27 50.24 10.18 50.35 10.07Z" fill="#61A568" fill-opacity="1.000000" fill-rule="nonzero"/>
	<path d="M50.29 18.34C50.18 18.23 50.06 18.14 49.92 18.08C49.78 18.02 49.63 17.99 49.48 17.99C49.33 17.99 49.19 18.02 49.05 18.08C48.91 18.14 48.78 18.23 48.68 18.34C48.52 18.5 48.41 18.71 48.37 18.94C48.32 19.17 48.35 19.4 48.43 19.62C48.52 19.83 48.66 20.01 48.85 20.14C49.04 20.27 49.25 20.34 49.48 20.34C49.7 20.34 49.92 20.27 50.11 20.14C50.3 20.01 50.44 19.83 50.53 19.62C50.61 19.4 50.64 19.17 50.59 18.94C50.55 18.71 50.44 18.5 50.28 18.34L50.29 18.34Z" fill="#61A568" fill-opacity="1.000000" fill-rule="nonzero"/>
	<path d="M61.11 8.92C60.48 6.56 59.17 4.46 57.36 2.88C53.42 -0.56 48.26 -0.71 42.31 1.31C41.17 1.69 39.98 1.88 38.78 1.88L24.57 1.88C23.37 1.88 22.18 1.69 21.04 1.31C15.09 -0.71 9.93 -0.56 5.98 2.88C4.17 4.46 2.87 6.56 2.23 8.92C-0.82 20.18 -0.87 29.86 2.83 37.58C4.52 41.07 7.12 41.72 10.4 40.28C11.35 39.85 12.25 39.3 13.07 38.65C15.44 36.77 17.41 34.42 18.89 31.74C19.14 31.27 19.39 30.79 19.6 30.28C21.25 26.65 23.75 24.57 27.58 24.97L31.67 25.06L35.77 24.97C39.6 24.58 42.08 26.67 43.75 30.28C43.97 30.77 44.21 31.25 44.46 31.73C45.93 34.41 47.91 36.77 50.27 38.65C51.09 39.3 51.99 39.85 52.95 40.28C56.22 41.72 58.83 41.07 60.51 37.58C64.21 29.86 64.16 20.18 61.11 8.92ZM14.08 22.18C12.56 22.18 11.07 21.71 9.8 20.84C8.53 19.96 7.54 18.72 6.96 17.26C6.37 15.81 6.22 14.2 6.52 12.66C6.81 11.11 7.55 9.69 8.63 8.58C9.7 7.46 11.08 6.7 12.57 6.39C14.07 6.09 15.62 6.24 17.02 6.85C18.43 7.45 19.64 8.47 20.48 9.78C21.33 11.09 21.78 12.63 21.78 14.21C21.78 16.32 20.97 18.35 19.52 19.84C18.08 21.34 16.12 22.18 14.08 22.18ZM30.09 22.14L26.5 22.14L26.5 20.5L30.09 20.5L30.09 22.14ZM36.84 22.14L33.26 22.14L33.26 20.5L36.84 20.5L36.84 22.14ZM47.4 7.03C47.97 6.44 48.74 6.11 49.55 6.11C50.35 6.11 51.12 6.44 51.69 7.03C52.12 7.46 52.4 8.02 52.52 8.63C52.64 9.24 52.58 9.87 52.35 10.44C52.12 11.01 51.73 11.5 51.23 11.85C50.73 12.19 50.15 12.38 49.55 12.38C48.95 12.38 48.36 12.19 47.86 11.85C47.36 11.5 46.98 11.01 46.75 10.44C46.52 9.87 46.46 9.24 46.57 8.63C46.69 8.02 46.98 7.46 47.4 7.03ZM42.57 16.46C42 15.87 41.68 15.07 41.68 14.24C41.68 13.41 42 12.61 42.57 12.02C43.14 11.43 43.91 11.1 44.71 11.1C45.52 11.1 46.29 11.43 46.86 12.02C47.14 12.31 47.36 12.66 47.52 13.04C47.67 13.42 47.75 13.83 47.75 14.24C47.75 14.65 47.67 15.06 47.52 15.44C47.36 15.82 47.14 16.17 46.86 16.46C46.58 16.75 46.24 16.98 45.87 17.14C45.51 17.29 45.11 17.38 44.71 17.38C43.91 17.38 43.14 17.05 42.57 16.46ZM51.64 21.4C51.15 21.91 50.49 22.24 49.79 22.31C49.09 22.38 48.38 22.2 47.8 21.8C47.21 21.39 46.78 20.79 46.57 20.09C46.37 19.4 46.4 18.65 46.67 17.97C46.94 17.3 47.43 16.74 48.05 16.4C48.67 16.06 49.39 15.95 50.08 16.09C50.77 16.23 51.39 16.62 51.84 17.18C52.29 17.74 52.53 18.45 52.53 19.18C52.53 19.59 52.45 20 52.3 20.38C52.14 20.76 51.92 21.11 51.63 21.4L51.64 21.4ZM56.48 16.4C56.05 16.84 55.51 17.14 54.92 17.26C54.33 17.38 53.72 17.32 53.17 17.08C52.61 16.84 52.14 16.44 51.81 15.92C51.47 15.41 51.29 14.8 51.29 14.18C51.29 13.56 51.47 12.95 51.81 12.43C52.14 11.92 52.61 11.51 53.17 11.28C53.72 11.04 54.33 10.98 54.92 11.1C55.51 11.22 56.05 11.52 56.48 11.96C57.04 12.55 57.36 13.35 57.36 14.18C57.36 15.01 57.04 15.81 56.47 16.4L56.48 16.4Z" fill="#61A568" fill-opacity="1.000000" fill-rule="nonzero"/>
	<path d="M14.08 8.21C12.93 8.21 11.81 8.56 10.86 9.22C9.9 9.88 9.16 10.82 8.72 11.91C8.28 13.01 8.16 14.22 8.39 15.38C8.61 16.54 9.16 17.61 9.98 18.45C10.79 19.29 11.82 19.86 12.95 20.1C14.07 20.33 15.24 20.21 16.3 19.75C17.36 19.3 18.27 18.53 18.91 17.54C19.54 16.56 19.88 15.4 19.88 14.21C19.88 12.62 19.27 11.09 18.18 9.97C17.09 8.84 15.62 8.21 14.08 8.21ZM18.98 14.25C18.98 14.51 18.88 14.76 18.7 14.95C18.52 15.13 18.28 15.23 18.03 15.23L15.02 15.23L15.02 18.34C15 18.59 14.89 18.82 14.72 18.99C14.54 19.16 14.31 19.26 14.07 19.26C13.82 19.26 13.59 19.16 13.41 18.99C13.24 18.82 13.13 18.59 13.11 18.34L13.11 15.22L10.12 15.22C9.87 15.22 9.63 15.12 9.45 14.94C9.27 14.75 9.17 14.5 9.17 14.24C9.17 13.98 9.27 13.73 9.45 13.55C9.63 13.37 9.87 13.26 10.12 13.26L13.13 13.26L13.13 10.15C13.12 10.01 13.14 9.88 13.18 9.75C13.22 9.62 13.29 9.51 13.38 9.41C13.47 9.31 13.58 9.23 13.7 9.18C13.82 9.13 13.95 9.1 14.08 9.1C14.21 9.1 14.34 9.13 14.46 9.18C14.58 9.23 14.68 9.31 14.77 9.41C14.86 9.51 14.93 9.62 14.98 9.75C15.02 9.88 15.04 10.01 15.03 10.15L15.03 13.26L18.04 13.26C18.29 13.27 18.53 13.37 18.71 13.56C18.88 13.74 18.98 13.99 18.98 14.25Z" fill="#61A568" fill-opacity="1.000000" fill-rule="nonzero"/>
	<path d="M54.32 13.01C54.06 13.01 53.81 13.1 53.6 13.27C53.4 13.45 53.26 13.68 53.21 13.95C53.16 14.22 53.2 14.49 53.32 14.73C53.45 14.97 53.65 15.16 53.89 15.26C54.13 15.37 54.4 15.38 54.66 15.3C54.91 15.22 55.12 15.05 55.27 14.83C55.41 14.6 55.48 14.33 55.45 14.06C55.43 13.79 55.31 13.54 55.12 13.35C54.91 13.13 54.62 13.01 54.32 13.01Z" fill="#61A568" fill-opacity="1.000000" fill-rule="nonzero"/>
	<path d="M74.77 13.78C74.39 13.96 73.99 14.11 73.58 14.21C73.2 14.31 72.8 14.36 72.4 14.37C71.52 14.39 70.65 14.19 69.86 13.79C69.16 13.43 68.57 12.87 68.17 12.17C67.77 11.46 67.56 10.65 67.58 9.83C67.55 8.85 67.77 7.89 68.21 7.03C68.6 6.3 69.19 5.71 69.9 5.32C70.63 4.94 71.44 4.74 72.26 4.76C72.78 4.75 73.3 4.82 73.81 4.95C74.26 5.06 74.69 5.23 75.1 5.45L74.52 7.15C74.21 6.99 73.88 6.86 73.53 6.77C73.19 6.67 72.84 6.61 72.49 6.6C71.67 6.54 70.85 6.82 70.22 7.37C69.94 7.67 69.73 8.03 69.59 8.42C69.46 8.82 69.4 9.23 69.43 9.65C69.42 10.18 69.55 10.71 69.82 11.16C70.07 11.6 70.44 11.94 70.89 12.16C71.38 12.39 71.91 12.51 72.45 12.5C72.88 12.53 73.3 12.45 73.69 12.26L73.69 11.12L72.12 11.12L72.12 9.32L75.51 9.32L75.51 13.31C75.29 13.51 75.04 13.67 74.77 13.78Z" fill="#61A568" fill-opacity="1.000000" fill-rule="nonzero"/>
	<path d="M82.09 12.41L79.07 12.41L78.33 14.25L76.56 14.25L80.68 4.44L80.78 4.44L84.91 14.25L82.84 14.25L82.09 12.41ZM81.5 10.85L80.62 8.56L79.7 10.85L81.5 10.85Z" fill="#61A568" fill-opacity="1.000000" fill-rule="nonzero"/>
	<path d="M95.56 4.45L95.56 14.26L93.76 14.26L93.76 9.76L90.79 14.12L90.75 14.12L87.89 10.04L87.89 14.25L86.16 14.25L86.16 4.44L90.78 11.21L95.5 4.44L95.56 4.45Z" fill="#61A568" fill-opacity="1.000000" fill-rule="nonzero"/>
	<path d="M99.7 4.83L99.7 14.25L97.91 14.25L97.91 4.83L99.7 4.83Z" fill="#61A568" fill-opacity="1.000000" fill-rule="nonzero"/>
	<path d="M110.26 4.83L110.26 14.64L110.21 14.64L103.84 8.68L103.87 14.25L102.06 14.25L102.06 4.44L102.13 4.44L108.49 10.5L108.45 4.83L110.26 4.83Z" fill="#61A568" fill-opacity="1.000000" fill-rule="nonzero"/>
	<path d="M119.25 13.78C118.87 13.96 118.47 14.11 118.06 14.21C117.67 14.31 117.28 14.36 116.88 14.37C116 14.39 115.13 14.19 114.34 13.79C113.64 13.43 113.05 12.87 112.65 12.17C112.25 11.46 112.04 10.65 112.05 9.83C112.03 8.85 112.24 7.89 112.69 7.03C113.08 6.3 113.67 5.71 114.38 5.32C115.11 4.93 115.92 4.73 116.74 4.73C117.27 4.73 117.79 4.79 118.3 4.92C118.75 5.03 119.18 5.2 119.59 5.42L119.01 7.13C118.69 6.96 118.36 6.83 118.02 6.75C117.68 6.65 117.33 6.59 116.98 6.58C116.15 6.52 115.34 6.79 114.7 7.35C114.43 7.65 114.21 8.01 114.08 8.4C113.94 8.79 113.89 9.21 113.92 9.62C113.91 10.16 114.04 10.68 114.3 11.14C114.56 11.57 114.93 11.91 115.37 12.13C115.86 12.37 116.4 12.49 116.94 12.48C117.36 12.5 117.79 12.42 118.18 12.23L118.18 11.12L116.6 11.12L116.6 9.32L120 9.32L120 13.3C119.78 13.51 119.52 13.67 119.25 13.78Z" fill="#61A568" fill-opacity="1.000000" fill-rule="nonzero"/>
	<path d="M73.86 29.43C73.34 29.63 72.78 29.73 72.21 29.73C71.35 29.75 70.49 29.53 69.74 29.09C69.06 28.68 68.5 28.09 68.13 27.38C67.76 26.65 67.57 25.83 67.57 25.01C67.56 24.13 67.75 23.26 68.13 22.47C68.48 21.74 69.03 21.13 69.71 20.71C70.42 20.28 71.22 20.07 72.03 20.09C72.55 20.08 73.07 20.16 73.56 20.32C74 20.46 74.41 20.65 74.8 20.89L74.1 22.65C73.53 22.17 72.82 21.9 72.09 21.88C71.63 21.88 71.18 22.02 70.79 22.28C70.38 22.54 70.05 22.92 69.83 23.36C69.58 23.82 69.46 24.34 69.47 24.87C69.46 25.42 69.57 25.97 69.8 26.47C70.01 26.91 70.34 27.28 70.75 27.54C71.19 27.8 71.69 27.93 72.2 27.92C72.61 27.93 73.02 27.85 73.4 27.69C73.71 27.57 73.99 27.39 74.23 27.17L74.97 28.83C74.63 29.09 74.26 29.29 73.86 29.43Z" fill="#61A568" fill-opacity="1.000000" fill-rule="nonzero"/>
	<path d="M78.55 20.19L78.55 27.82L82.84 27.82L82.84 29.61L76.76 29.61L76.76 20.19L78.55 20.19Z" fill="#61A568" fill-opacity="1.000000" fill-rule="nonzero"/>
	<path d="M86.56 26.99C86.74 27.26 86.98 27.49 87.25 27.65C87.54 27.82 87.86 27.91 88.18 27.91C88.52 27.91 88.86 27.82 89.16 27.65C89.44 27.49 89.68 27.27 89.86 26.99C90.02 26.73 90.11 26.44 90.11 26.13L90.11 20.19L91.88 20.19L91.88 26.16C91.89 26.81 91.72 27.44 91.39 27.98C91.06 28.53 90.6 28.97 90.04 29.26C89.47 29.56 88.83 29.72 88.19 29.72C87.54 29.72 86.91 29.56 86.33 29.26C85.78 28.97 85.32 28.53 85 27.98C84.67 27.44 84.5 26.81 84.51 26.16L84.51 20.19L86.31 20.19L86.31 26.13C86.31 26.43 86.4 26.73 86.56 26.99Z" fill="#61A568" fill-opacity="1.000000" fill-rule="nonzero"/>
	<path d="M99.86 25.54C100.13 25.91 100.27 26.36 100.27 26.82C100.3 27.23 100.23 27.63 100.07 28C99.91 28.36 99.67 28.68 99.36 28.93C98.69 29.4 97.89 29.63 97.09 29.6L94.05 29.6L94.05 20.19L96.73 20.19C97.53 20.14 98.32 20.36 99 20.8C99.27 20.99 99.49 21.26 99.63 21.57C99.78 21.88 99.85 22.22 99.83 22.56C99.84 22.99 99.74 23.41 99.54 23.79C99.35 24.14 99.08 24.44 98.74 24.64C99.18 24.84 99.56 25.15 99.86 25.54ZM95.84 24.04L96.94 24.04C97.08 24.05 97.22 24.03 97.36 23.97C97.49 23.92 97.61 23.83 97.71 23.73C97.89 23.52 97.99 23.24 97.98 22.95C97.99 22.82 97.97 22.68 97.91 22.55C97.86 22.43 97.77 22.32 97.67 22.23C97.42 22.05 97.12 21.96 96.82 21.98L95.85 21.98L95.84 24.04ZM98.01 27.62C98.14 27.54 98.25 27.42 98.32 27.28C98.4 27.15 98.43 26.99 98.43 26.83C98.43 26.17 97.91 25.83 96.89 25.83L95.86 25.83L95.86 27.88L97.01 27.88C97.36 27.89 97.71 27.8 98.01 27.62Z" fill="#61A568" fill-opacity="1.000000" fill-rule="nonzero"/></symbol>
<symbol viewBox="0 0 24 24" id="cross"><path fill="none" stroke="currentColor" stroke-linecap="round" stroke-width="2" d="m8 8l4 4m0 0l4 4m-4-4l4-4m-4 4l-4 4"></path></symbol>
<symbol viewBox="0 0 24 24" id="sent"><path fill="none" stroke="currentColor" stroke-linecap="round" stroke-width="2" d="m9.583 17.5l4.858-4.859a.2.2 0 0 0 0-.282L9.583 7.5"></path></symbol>
</defs>
</svg>

