<svg xmlns="http://www.w3.org/2000/svg" viewBox="0 0 160 32">
  <!-- Иконка 1 +-->
 <symbol viewBox="0 0 14 14" id="team"><g fill="none" stroke="currentColor" stroke-linecap="round" stroke-linejoin="round"><circle cx="5" cy="2.75" r="2.25"></circle><path d="M6 6.61A4.49 4.49 0 0 0 .5 11v1.5H6m4.67.97h0a.5.5 0 0 1-.34 0h0A4.48 4.48 0 0 1 7.5 9.31V8a.47.47 0 0 1 .5-.5h5a.47.47 0 0 1 .5.5v1.31a4.48 4.48 0 0 1-2.83 4.16Z"></path></g></symbol>

  <!-- Иконка 2 +-->
  <symbol viewBox="0 0 512 512" id="controller"><path fill="currentColor" d="M380.95 114.46c-62.946-13.147-63.32 32.04-124.868 32.04c-53.25 0-55.247-44.675-124.87-32.04C17.207 135.072-.32 385.9 60.16 399.045c33.578 7.295 50.495-31.644 94.89-59.593a51.562 51.562 0 0 0 79.77-25.78a244 244 0 0 1 21.24-.91c7.466 0 14.44.32 21.126.898a51.573 51.573 0 0 0 79.82 25.717c44.45 27.95 61.367 66.93 94.955 59.626c60.47-13.104 42.496-260.845-71.01-284.543zM147.47 242.703h-26.144V216.12H94.73v-26.143h26.594v-26.593h26.144v26.582h26.582v26.144h-26.582v26.582zm38.223 89.615a34.336 34.336 0 1 1 34.337-34.336a34.336 34.336 0 0 1-34.325 34.346zm140.602 0a34.336 34.336 0 1 1 34.367-34.325a34.336 34.336 0 0 1-34.368 34.335zM349.98 220.36a17.323 17.323 0 1 1 17.32-17.32a17.323 17.323 0 0 1-17.323 17.323zm37.518 37.52a17.323 17.323 0 1 1 17.322-17.324a17.323 17.323 0 0 1-17.365 17.334zm0-75.048a17.323 17.323 0 1 1 17.322-17.323a17.323 17.323 0 0 1-17.365 17.333zm37.518 37.518a17.323 17.323 0 1 1 17.323-17.323a17.323 17.323 0 0 1-17.367 17.334z"></path></symbol>

  <!-- Иконка 3 +-->
  <!-- <symbol id="logoTeam" viewBox="0 0 24 24">
    <path fill="currentColor" d="M13.4 14.15c-.67.8-1.14 1.78-1.32 2.85H7.5v-.75c0-1.5 3-2.25 4.5-2.25c.39 0 .88.05 1.4.15M19 5v7.08c.72.12 1.39.37 2 .72V5a2 2 0 0 0-2-2H5c-.53 0-1.04.21-1.41.59C3.21 3.96 3 4.47 3 5v14c0 .53.21 1.04.59 1.41c.37.38.88.59 1.41.59h7.8c-.35-.61-.6-1.28-.72-2H5V5zm-7 7.25c.6 0 1.17-.25 1.59-.66c.41-.42.66-.99.66-1.59s-.25-1.17-.66-1.59A2.3 2.3 0 0 0 12 7.75c-.6 0-1.17.25-1.59.66c-.41.42-.66.99-.66 1.59s.25 1.17.66 1.59c.42.41.99.66 1.59.66M17 14h2v3h3v2h-3v3h-2v-3h-3v-2h3z"/>
  </symbol> -->
  <symbol viewBox="0 0 100 100" id="logoTeam"><path fill="currentColor" d="M0 21.127v57.746c.001 1.82 1.886 3.03 3.541 2.272c0 0 3.455-1.604 11.104-3.297S33.985 74.443 50 74.443s27.706 1.712 35.355 3.405c7.65 1.693 11.104 3.297 11.104 3.297c1.655.757 3.54-.451 3.541-2.272V21.127c-.001-1.79-1.827-2.998-3.475-2.3c0 0-15.746 6.73-46.525 6.73s-46.525-6.73-46.525-6.73C1.787 18.223.04 19.78 0 21.126m5 3.504c6.39 2.027 21.643 5.926 45 5.926s38.61-3.899 45-5.926v44.426c-7.977.228-16.18-.56-24.992-4.09L51.795 44.604L36.416 57.508l-7.424-4.95L14.4 68.042c-3.017 1.35-5.923 3.034-9.4 3.004Zm70.04 12.846a6.72 6.72 0 0 0-6.628 6.716a6.718 6.718 0 1 0 6.627-6.716" color="currentColor"></path></symbol>

  <!-- Иконка 4 -->
  <symbol viewBox="0 0 100 100" id="country"><path fill="currentColor" d="M52.5 5.682v20.187h17.676c-.988-2.823-2.13-5.429-3.408-7.75c-3.966-7.2-9-11.541-14.268-12.437m-5 .197c-4.93 1.223-9.61 5.462-13.342 12.24c-1.278 2.321-2.42 4.927-3.408 7.75H47.5zM35.98 7.232C25.985 10.5 17.545 17.163 12.01 25.87h13.455c1.187-3.695 2.633-7.112 4.312-10.162c1.793-3.255 3.88-6.123 6.203-8.475m29.41.463c2.145 2.263 4.082 4.967 5.758 8.012c1.68 3.05 3.123 6.467 4.307 10.162H87.99c-5.28-8.306-13.202-14.761-22.6-18.174M9.257 30.87A44.8 44.8 0 0 0 5.072 47.5h16.79c.194-5.872.957-11.469 2.202-16.63zm19.974 0c-1.32 5.077-2.15 10.696-2.363 16.631H47.5V30.87zm23.27 0V47.5H74.06c-.212-5.935-1.043-11.554-2.364-16.63zm24.355 0c1.243 5.163 2.004 10.76 2.198 16.631h15.875a44.8 44.8 0 0 0-4.184-16.63zM5.072 52.5a44.8 44.8 0 0 0 4.184 16.63h14.572c-1.174-5.176-1.865-10.774-1.994-16.63zm21.762 0c.14 5.915.901 11.53 2.146 16.63H47.5V52.5zm25.666 0v16.63h19.445c1.245-5.1 2.006-10.715 2.147-16.63zm26.576 0c-.129 5.855-.815 11.453-1.986 16.63h13.654a44.8 44.8 0 0 0 4.184-16.63zM12.01 74.13c5.285 8.313 13.214 14.772 22.62 18.183c-1.785-2.05-3.415-4.407-4.853-7.018c-1.83-3.325-3.389-7.08-4.63-11.164zm18.394 0c1.062 3.216 2.326 6.159 3.754 8.753c3.5 6.355 7.834 10.475 12.424 11.974c.306.023.61.054.918.07V74.132zm22.096 0v20.798a46 46 0 0 0 2.127-.162c4.485-1.575 8.713-5.658 12.14-11.883c1.429-2.594 2.693-5.537 3.754-8.752zm23.275 0c-1.239 4.085-2.796 7.84-4.627 11.165c-1.311 2.382-2.782 4.556-4.386 6.476a45.06 45.06 0 0 0 21.228-17.64z" color="currentColor"></path></symbol>

  <!-- Иконка 5 +-->
  <symbol id="description" viewBox="0 0 24 24">
    <path fill="currentColor" d="M5 3H3v18h18V3zm14 2v14H5V5zm-2 2H7v2h10zM7 11h10v2H7zm7 4H7v2h7z"/>
  </symbol>
</svg>
 
 

