<svg xmlns="http://www.w3.org/2000/svg" viewBox="0 0 160 32">
  <!-- Иконка 1 -->
  <symbol id="icon1" viewBox="0 0 24 24">
    <path fill="currentColor" d="M6.43 3.72c.07-.06.14-.12.19-.16C8.18 2.55 10 2 12 2c1.88 0 3.64.5 5.14 1.42c.11.08.4.27.56.46C16.25 2.28 12 5.7 12 5.7c-1.5-1.13-2.83-1.9-3.84-2.2c-.85-.21-1.43 0-1.7.2m12.88 1.51c-.05-.05-.1-.1-.14-.15c-.36-.4-.82-.5-1.2-.47c-.39.12-2.1.73-4.2 2.72c0 0 2.37 2.3 3.82 4.65s2.31 4.2 1.78 6.77C21 16.95 22 14.59 22 12c0-2.62-1-5-2.66-6.79m-3.61 7.75c-.65-.72-1.6-1.75-2.87-3.01c-.27-.27-.56-.55-.86-.85c0 0-.47.46-1.07 1.07c-.77.77-1.76 1.78-2.32 2.37c-.98 1.05-3.8 4.35-3.96 6.2c0 0-.65-1.46.75-4.85c.9-2.21 3.6-5.53 4.75-6.61c0 0-1.03-1.14-2.33-1.93l-.05-.03c-.63-.37-1.31-.66-1.97-.7c-.67.05-1.09.54-1.09.54A9.95 9.95 0 0 0 2 12a10 10 0 0 0 10 10c2.93 0 5.57-1.26 7.4-3.27c0 0-.21-1.33-1.56-3.23c-.31-.43-1.47-1.81-2.11-2.54" />
  </symbol>

  <!-- Иконка 2 -->
  <symbol id="icon2" viewBox="0 0 24 24">
    <path fill="currentColor" d="M7 1c-1.1 0-2 .9-2 2v18a2 2 0 0 0 2 2h7c2.76 0 5-2.24 5-5V3a2 2 0 0 0-2-2zm1 3h8v7H8zm1 10h1v2h2v1h-2v2H9v-2H7v-1h2zm7 1c.55 0 1 .45 1 1s-.45 1-1 1s-1-.45-1-1s.45-1 1-1m-2 2c.55 0 1 .45 1 1s-.45 1-1 1s-1-.45-1-1s.45-1 1-1" />
  </symbol>

  <!-- Иконка 3 -->
  <symbol id="icon3" viewBox="0 0 14 14">
    <path fill="currentColor" fill-rule="evenodd" d="M9.29.77c.183-.837 1.375-.842 1.566-.006l.009.04l.018.077c.22.938.979 1.655 1.93 1.82c.873.152.873 1.406 0 1.558a2.41 2.41 0 0 0-1.934 1.835l-.023.102c-.19.836-1.383.831-1.567-.006l-.019-.088a2.39 2.39 0 0 0-1.926-1.845c-.871-.151-.871-1.403 0-1.554A2.39 2.39 0 0 0 9.268.868l.014-.064zM7.156 5.334a2 2 0 0 1-.697-.257H3.942A3 3 0 0 0 .96 7.745l-.4 3.608a2.247 2.247 0 0 0 4.24 1.253l.354-.707H8.08l.353.707a2.246 2.246 0 0 0 4.242-1.253l-.4-3.608a3 3 0 0 0-.387-1.175c-.542 1.842-3.242 1.786-3.665-.147l-.02-.088a1.3 1.3 0 0 0-1.045-1.001ZM4.684 7.513a.625.625 0 1 0-1.25 0v.512h-.512a.625.625 0 0 0 0 1.25h.512v.512a.625.625 0 0 0 1.25 0v-.512h.512a.625.625 0 1 0 0-1.25h-.512zm4.75 1.746a.61.61 0 1 1-1.218 0a.61.61 0 0 1 1.218 0" clip-rule="evenodd" />
  </symbol>

  <!-- Иконка 4 -->
  <symbol id="icon4" viewBox="0 0 512 512">
    <path fill="currentColor" d="m293.558 241.704l-30.06 30.06a167.36 167.36 0 0 0 123.006 23.162l-8.044-40.39a126.16 126.16 0 0 1-84.902-12.832m-139.303 75.694a3.76 3.76 0 0 0 1.13 2.792l18.666 18.666a4.78 4.78 0 0 0 5.07 1.197c4.703-1.845 8.975 3.075 10.728 11.51l6.375 30.459a9.555 9.555 0 0 0 11.31 7.404l4.23-.905a15.385 15.385 0 0 0 11.918-18.217l-6.757-32.287a10.26 10.26 0 0 1 2.743-9.391l27.217-27.218a12.376 12.376 0 0 0 0-17.502l-11.061-11.062l50.894-50.894l-32.278-32.279l-33.151 33.152l3.964 3.964l-70.64 70.64s-.117 14.91-.358 19.97zm57.834-2.003a9.673 9.673 0 0 1 0-13.68l10.712-10.712a9.673 9.673 0 0 1 13.68 0l1.603 1.604a9.673 9.673 0 0 1 0 13.68l-10.745 10.745a9.673 9.673 0 0 1-13.646-.033zm-100.56 161.21a9.9 9.9 0 0 1-1.952 2.784l-5.145 5.145a5.007 5.007 0 0 1-7.08 0l-42.717-42.717a7.91 7.91 0 0 1-.258-10.912l63.37-69.702l.365-.365a10.9 10.9 0 0 1 4.504-2.71l3.59-1.113a11.1 11.1 0 0 0 5.926-4.397l11.71-17.377l23.353 23.353zM384.012 93.991a4.7 4.7 0 0 0-6.648 0l-15.707 15.707l-4.38-4.38l20.926-20.926l8.85 2.468a15.13 15.13 0 0 0 14.769-3.914l26.345-26.345l-9.109-20.012a6.79 6.79 0 0 1 1.38-7.612l.764-.765c2.718-2.718 7.455-3.05 10.173-.332l15.316 15.316l6.582-6.582l6.408 6.408l-6.59 6.59l2.991 2.992l-75.76 75.76l-12.017-12.017l15.707-15.708a4.7 4.7 0 0 0 0-6.648m-40.207 24.45l18.575 18.574a7.193 7.193 0 0 1 .423 9.715l-51.875 61.748a7.193 7.193 0 0 1-10.596.458l-23.527-23.528a7.193 7.193 0 0 1 0-10.172l56.811-56.812a7.193 7.193 0 0 1 10.173 0z"/>  
  </symbol>

  <!-- Иконка 5 -->
  <symbol id="icon5" viewBox="0 0 512 512">
    <path fill="currentColor" d="M29.65 117.89v276.22h124.62V117.89zm90.55 253.16a11 11 0 1 1 11-11a11 11 0 0 1-11 11m18-189.16H45.56v-16h92.63v16zm0-32H45.56v-16h92.63v16zm153 188.51h73.1v39.71h41.74v16H249.48v-16h41.74V338.4zm-118-220.51V322.4h309.15V117.89H173.19zM466.35 306.4H189.19V133.89h277.16z" />
  </symbol>
 <!-- Иконка выхода для чата-->
  <symbol id="icon-exit-chat" viewBox="0 0 20 20" id="heroicons-solid-arrow-right-on-rectangle"><g fill="currentColor" fill-rule="evenodd" clip-rule="evenodd"><path d="M3 4.25A2.25 2.25 0 0 1 5.25 2h5.5A2.25 2.25 0 0 1 13 4.25v2a.75.75 0 0 1-1.5 0v-2a.75.75 0 0 0-.75-.75h-5.5a.75.75 0 0 0-.75.75v11.5c0 .414.336.75.75.75h5.5a.75.75 0 0 0 .75-.75v-2a.75.75 0 0 1 1.5 0v2A2.25 2.25 0 0 1 10.75 18h-5.5A2.25 2.25 0 0 1 3 15.75V4.25Z"></path><path d="M6 10a.75.75 0 0 1 .75-.75h9.546l-1.048-.943a.75.75 0 1 1 1.004-1.114l2.5 2.25a.75.75 0 0 1 0 1.114l-2.5 2.25a.75.75 0 1 1-1.004-1.114l1.048-.943H6.75A.75.75 0 0 1 6 10Z"></path></g></symbol>
</svg>